<svg width="32" height="31" viewBox="0 0 32 31" fill="none" xmlns="http://www.w3.org/2000/svg">
<path d="M15.886 19.2334C16.6453 19.2334 17.3562 19.3714 18.0189 19.6475C18.6953 19.9098 19.282 20.2688 19.779 20.7243C20.276 21.1799 20.6694 21.7183 20.9593 22.3395C21.2492 22.9607 21.3942 23.6234 21.3942 24.3274C21.3942 25.0315 21.2492 25.6941 20.9593 26.3154C20.6694 26.9228 20.276 27.4612 19.779 27.9305C19.282 28.3861 18.6953 28.7519 18.0189 29.028C17.3562 29.2903 16.6453 29.4215 15.886 29.4215H15.5547C15.817 29.2144 16.0517 28.9452 16.2587 28.6139C16.4796 28.2688 16.666 27.8753 16.8178 27.4336C16.9697 26.9918 17.087 26.5086 17.1699 25.984C17.2665 25.4595 17.3148 24.9073 17.3148 24.3274C17.3148 23.7476 17.2665 23.1954 17.1699 22.6708C17.087 22.1463 16.9697 21.6631 16.8178 21.2213C16.666 20.7796 16.4796 20.393 16.2587 20.0617C16.0517 19.7166 15.817 19.4405 15.5547 19.2334H15.886Z" fill="#00908E"/>
<path d="M15.239 0.628906C14.4797 0.628906 13.7688 0.766956 13.1061 1.04306C12.4297 1.30535 11.843 1.66428 11.346 2.11985C10.849 2.57541 10.4556 3.11381 10.1657 3.73503C9.87575 4.35626 9.73079 5.0189 9.73079 5.72295C9.73079 6.42701 9.87575 7.08965 10.1657 7.71087C10.4556 8.31829 10.849 8.85669 11.346 9.32606C11.843 9.78162 12.4297 10.1475 13.1061 10.4236C13.7688 10.6859 14.4797 10.817 15.239 10.817H15.5703C15.308 10.6099 15.0733 10.3407 14.8663 10.0094C14.6454 9.66428 14.459 9.27084 14.3072 8.82908C14.1553 8.38732 14.038 7.90414 13.9551 7.37955C13.8585 6.85496 13.8102 6.30276 13.8102 5.72295C13.8102 5.14314 13.8585 4.59094 13.9551 4.06635C14.038 3.54176 14.1553 3.05859 14.3072 2.61683C14.459 2.17507 14.6454 1.78853 14.8663 1.45721C15.0733 1.11208 15.308 0.835981 15.5703 0.628906H15.239Z" fill="#00908E"/>
<path d="M13.3055 18.5908C13.914 19.045 14.4011 19.5809 14.767 20.1985C15.1522 20.8133 15.4076 21.4519 15.5334 22.1143C15.6591 22.7767 15.6523 23.4435 15.513 24.1147C15.3737 24.7859 15.0935 25.4037 14.6724 25.9679C14.2512 26.5321 13.7386 26.9764 13.1347 27.3008C12.5391 27.6141 11.9017 27.8102 11.2227 27.889C10.5519 27.9568 9.8629 27.899 9.15566 27.7156C8.46775 27.5294 7.81957 27.2092 7.21113 26.755L6.94562 26.5568C7.27968 26.5478 7.62878 26.4725 7.99292 26.3308C8.37637 26.1864 8.76107 25.9826 9.14701 25.7194C9.53296 25.4563 9.91602 25.1393 10.2962 24.7684C10.6874 24.4058 11.0565 23.9922 11.4033 23.5276C11.7502 23.063 12.0418 22.5916 12.2781 22.1134C12.5256 21.6434 12.7206 21.1861 12.8631 20.7412C13.0057 20.2964 13.0876 19.8751 13.1088 19.4775C13.1493 19.0771 13.1264 18.7154 13.04 18.3926L13.3055 18.5908Z" fill="#00908E"/>
<path d="M23.9161 3.29497C23.3077 2.84078 22.6554 2.52612 21.9592 2.35099C21.2602 2.15654 20.5754 2.0932 19.9046 2.16098C19.2338 2.22876 18.5965 2.42485 17.9925 2.74926C17.3886 3.07366 16.8761 3.51796 16.4549 4.08216C16.0338 4.64635 15.7535 5.26407 15.6142 5.93531C15.4832 6.59549 15.4764 7.26229 15.5939 7.93571C15.7196 8.59807 15.971 9.24219 16.3479 9.86809C16.722 10.4747 17.2133 11.005 17.8217 11.4592L18.0872 11.6574C18.0009 11.3346 17.9739 10.9785 18.0061 10.5891C18.0356 10.1804 18.1216 9.75364 18.2641 9.30879C18.4067 8.86395 18.6017 8.40656 18.8491 7.93663C19.0855 7.45844 19.3771 6.98703 19.7239 6.5224C20.0708 6.05777 20.4398 5.64416 20.8311 5.28159C21.2112 4.91075 21.5943 4.59375 21.9802 4.33058C22.3662 4.06741 22.7468 3.86914 23.122 3.73576C23.4944 3.58307 23.8476 3.5022 24.1816 3.49316L23.9161 3.29497Z" fill="#00908E"/>
<path d="M11.6266 16.5458C11.8451 17.273 11.9176 17.9936 11.8439 18.7076C11.7874 19.4309 11.6125 20.0961 11.3193 20.7032C11.026 21.3103 10.6236 21.842 10.1121 22.2985C9.60065 22.7549 9.00777 23.0845 8.33351 23.2871C7.65924 23.4897 6.98292 23.5417 6.30455 23.4428C5.63939 23.34 5.01053 23.1182 4.41798 22.7773C3.83865 22.4325 3.31943 21.9759 2.86032 21.4075C2.4184 20.8484 2.08818 20.2053 1.86964 19.4782L1.77428 19.1609C2.04809 19.3525 2.37344 19.4997 2.75034 19.6027C3.14444 19.7149 3.57487 19.7801 4.04164 19.7984C4.50842 19.8167 5.00492 19.79 5.53115 19.7183C6.06136 19.6599 6.6041 19.5472 7.15937 19.3804C7.71465 19.2135 8.22957 19.0083 8.70415 18.7647C9.1827 18.5344 9.61166 18.283 9.99102 18.0104C10.3704 17.7378 10.6869 17.4481 10.9406 17.1412C11.2116 16.8435 11.4084 16.5393 11.5312 16.2285L11.6266 16.5458Z" fill="#00908E"/>
<path d="M29.2582 10.5714C29.0396 9.84423 28.7028 9.20309 28.2476 8.64796C27.8018 8.07563 27.2891 7.61705 26.7098 7.27222C26.1305 6.9274 25.5016 6.70557 24.8232 6.60673C24.1449 6.5079 23.4685 6.5598 22.7943 6.76244C22.12 6.96508 21.5271 7.29463 21.0157 7.75107C20.5174 8.20353 20.115 8.73529 19.8085 9.34633C19.5153 9.9534 19.3338 10.6206 19.2641 11.3479C19.2036 12.058 19.2826 12.7766 19.5012 13.5037L19.5965 13.821C19.7194 13.5102 19.9096 13.208 20.1673 12.9143C20.4343 12.6035 20.7574 12.3117 21.1368 12.0392C21.5161 11.7666 21.9451 11.5151 22.4236 11.2848C22.8982 11.0413 23.4131 10.8361 23.9684 10.6692C24.5237 10.5023 25.0664 10.3896 25.5966 10.3312C26.1229 10.2595 26.6194 10.2329 27.0862 10.2511C27.5529 10.2694 27.9767 10.3366 28.3576 10.4528C28.7477 10.5518 29.0797 10.6971 29.3535 10.8887L29.2582 10.5714Z" fill="#00908E"/>
<path d="M11.4854 13.9417C11.2348 14.6584 10.8699 15.284 10.3905 15.8184C9.9197 16.3703 9.38725 16.8057 8.7932 17.1245C8.19914 17.4433 7.56107 17.637 6.87897 17.7057C6.19688 17.7743 5.52352 17.6925 4.85892 17.4601C4.19431 17.2278 3.61663 16.8722 3.12589 16.3936C2.64817 15.9194 2.26979 15.3704 1.99073 14.7463C1.7247 14.1268 1.57299 13.4523 1.5356 12.7226C1.50669 12.0105 1.61752 11.2961 1.8681 10.5794L1.97744 10.2666C2.08635 10.5826 2.26301 10.8929 2.50743 11.1978C2.76032 11.5202 3.07022 11.8259 3.43711 12.1151C3.80401 12.4042 4.22139 12.6744 4.68925 12.9257C5.15256 13.1901 5.65787 13.4179 6.2052 13.6093C6.75252 13.8006 7.28973 13.9373 7.81682 14.0192C8.33936 14.1141 8.83419 14.1628 9.30131 14.1652C9.76844 14.1677 10.1948 14.1193 10.5805 14.0202C10.9746 13.9386 11.3127 13.8082 11.5947 13.6289L11.4854 13.9417Z" fill="#00908E"/>
<path d="M29.2607 19.4704C29.5113 18.7537 29.6156 18.037 29.5737 17.3204C29.5493 16.5953 29.4041 15.923 29.1381 15.3035C28.8721 14.684 28.4937 14.1349 28.0029 13.6563C27.5122 13.1776 26.9345 12.8221 26.2699 12.5897C25.6053 12.3574 24.9319 12.2755 24.2498 12.3441C23.5808 12.4173 22.9427 12.6111 22.3356 12.9253C21.7416 13.2441 21.2026 13.6772 20.7187 14.2246C20.2524 14.7636 19.894 15.3914 19.6434 16.1082L19.5341 16.4209C19.8161 16.2417 20.1477 16.109 20.5288 16.0228C20.9275 15.9282 21.3604 15.8821 21.8275 15.8846C22.2946 15.887 22.7894 15.9357 23.312 16.0307C23.8391 16.1126 24.3763 16.2492 24.9236 16.4405C25.4709 16.6319 25.9762 16.8597 26.4396 17.1241C26.9074 17.3754 27.3248 17.6456 27.6917 17.9348C28.0586 18.2239 28.362 18.5274 28.6018 18.8452C28.8593 19.1546 29.0425 19.4673 29.1514 19.7832L29.2607 19.4704Z" fill="#00908E"/>
<path d="M12.8655 11.7796C12.2461 12.2188 11.5864 12.5174 10.8861 12.6756C10.1826 12.8529 9.49641 12.8995 8.82749 12.8154C8.15857 12.7313 7.52619 12.5197 6.93035 12.1807C6.33451 11.8417 5.83295 11.385 5.42566 10.8107C5.01838 10.2364 4.7533 9.61206 4.63041 8.93763C4.51551 8.27445 4.52498 7.60769 4.65885 6.93733C4.8007 6.27824 5.06765 5.64043 5.45971 5.0239C5.84849 4.42663 6.35255 3.90838 6.97189 3.46915L7.24215 3.27749C7.14798 3.59813 7.11227 3.95348 7.13502 4.34352C7.1545 4.75282 7.23008 5.18156 7.36176 5.62974C7.49344 6.07793 7.67723 6.53993 7.91313 7.01576C8.13777 7.49956 8.4178 7.97794 8.7532 8.45089C9.08861 8.92384 9.44746 9.34632 9.82975 9.71833C10.2008 10.0983 10.576 10.4246 10.9554 10.6971C11.3348 10.9696 11.7105 11.177 12.0823 11.3195C12.4508 11.4813 12.802 11.5707 13.1357 11.5879L12.8655 11.7796Z" fill="#00908E"/>
<path d="M24.155 26.5808C24.7744 26.1416 25.2744 25.6177 25.6552 25.0092C26.0553 24.4039 26.3262 23.7717 26.4681 23.1126C26.6099 22.4535 26.6194 21.7868 26.4965 21.1123C26.3736 20.4379 26.1085 19.8135 25.7012 19.2392C25.294 18.6649 24.7924 18.2083 24.1966 17.8692C23.6087 17.5415 22.9763 17.3299 22.2994 17.2345C21.6305 17.1504 20.9403 17.1914 20.2288 17.3575C19.5366 17.5269 18.8808 17.8312 18.2614 18.2704L17.9912 18.4621C18.3249 18.4792 18.6721 18.5631 19.0326 18.7135C19.4125 18.8673 19.7921 19.0804 20.1715 19.3529C20.5509 19.6254 20.9261 19.9516 21.2972 20.3316C21.6795 20.7036 22.0383 21.1261 22.3737 21.5991C22.7091 22.072 22.9891 22.5504 23.2138 23.0342C23.4497 23.51 23.6335 23.972 23.7652 24.4202C23.8968 24.8684 23.9684 25.2915 23.9799 25.6895C24.0106 26.0908 23.9789 26.4518 23.8848 26.7725L24.155 26.5808Z" fill="#00908E"/>
</svg>
