<svg width="551" height="130" viewBox="0 0 551 130" fill="none" xmlns="http://www.w3.org/2000/svg">
<path d="M28.1242 30.0757C37.7345 30.0757 47.7688 33.5892 55.8245 40.3351L45.5075 52.8432C39.9958 49.0486 34.06 46.5189 28.1242 46.5189C23.6017 46.5189 21.1992 48.0649 21.1992 50.0324C21.1992 52.7027 26.1456 54.1081 32.2227 55.9351C43.5289 59.1676 57.5204 63.2432 57.5204 78C57.5204 89.5243 48.1928 100.627 30.8094 100.627C19.7859 100.627 8.76232 96.1297 0 88.4L11.4476 75.6108C17.3833 80.9513 23.8844 84.1838 30.6681 84.1838C36.6039 84.1838 39.0065 81.7946 39.0065 79.6865C39.0065 76.7351 33.9187 75.1892 27.7002 73.3622C16.394 69.9892 2.5439 65.773 2.5439 51.4378C2.5439 40.4757 11.4475 30.0757 28.1242 30.0757Z" fill="white"/>
<path d="M123.538 32.1838V70.6919C123.538 87.6973 111.667 100.627 94.142 100.627C76.6174 100.627 64.7458 87.8378 64.7458 70.6919V32.1838H83.4011V70.6919C83.4011 77.8595 88.4889 82.7784 94.142 82.7784C99.9364 82.7784 105.024 77.8595 105.024 70.6919V32.1838H123.538Z" fill="white"/>
<path d="M161.211 32.1838H174.354V50.3135H161.493C156.264 50.3135 152.024 54.3892 152.024 59.7297V98.3784H133.511V59.7297C133.511 44.6919 145.947 32.1838 161.211 32.1838Z" fill="white"/>
<path d="M221.082 98.3784H214.439C195.643 98.3784 179.955 83.2 179.955 64.5081C179.955 45.6757 195.219 30.0757 214.581 30.0757C233.66 30.0757 248.923 45.2541 248.923 64.3676V98.3784H230.268V64.0865C230.268 55.5135 223.343 48.3459 214.581 48.3459C205.818 48.3459 198.611 55.373 198.611 63.9459C198.611 72.5189 205.677 80.1081 214.581 80.1081H221.082V98.3784Z" fill="white"/>
<path d="M288.05 32.1838H294.551C313.348 32.1838 329.035 47.5027 329.035 66.0541C329.035 85.027 313.913 100.627 294.41 100.627C275.331 100.627 260.209 85.3081 260.209 66.1946V0L278.723 30.0757V66.4757C278.723 75.1892 285.789 82.2162 294.41 82.2162C303.172 82.2162 310.522 75.3297 310.522 66.7568C310.522 58.0432 303.314 50.5946 294.41 50.5946H288.05V32.1838Z" fill="white"/>
<path d="M375.797 98.3784H369.155C350.358 98.3784 334.671 83.2 334.671 64.5081C334.671 45.6757 349.934 30.0757 369.296 30.0757C388.375 30.0757 403.639 45.2541 403.639 64.3676V98.3784H384.984V64.0865C384.984 55.5135 378.059 48.3459 369.296 48.3459C360.534 48.3459 353.326 55.373 353.326 63.9459C353.326 72.5189 360.393 80.1081 369.296 80.1081H375.797V98.3784Z" fill="white"/>
<path d="M413.511 70.973V32.1838H432.025V70.973C432.025 78.1405 437.254 83.0595 443.048 83.0595C448.984 83.0595 453.931 78.1405 453.931 70.973V32.1838H472.586V98.0973C472.586 118.757 459.584 130 440.363 130H0L27.7002 111.589H440.504C448.56 111.589 453.931 106.53 453.931 98.0973V97.3946C450.256 99.7838 445.734 101.049 440.928 101.049C424.534 101.049 413.511 88.2595 413.511 70.973Z" fill="white"/>
<path d="M522.37 98.3784H515.727C496.931 98.3784 481.243 83.2 481.243 64.5081C481.243 45.6757 496.507 30.0757 515.869 30.0757C534.948 30.0757 550.211 45.2541 550.211 64.3676V98.3784H531.556V64.0865C531.556 55.5135 524.631 48.3459 515.869 48.3459C507.106 48.3459 499.899 55.373 499.899 63.9459C499.899 72.5189 506.965 80.1081 515.869 80.1081H522.37V98.3784Z" fill="white"/>
</svg>
