<svg width="34" height="34" viewBox="0 0 34 34" fill="none" xmlns="http://www.w3.org/2000/svg">
<path d="M32.2042 29.4455C31.8757 30.2903 31.3829 31.0178 30.7258 31.6279C30.1157 32.238 29.4117 32.7074 28.6138 33.0359C27.8629 33.3175 27.0415 33.4818 26.1498 33.5287C25.305 33.5287 24.4602 33.3644 23.6154 33.0359C22.7706 32.7074 22.0431 32.238 21.433 31.6279C20.8229 30.9708 20.3535 30.2434 20.025 29.4455C19.6965 28.6477 19.5087 27.8263 19.4618 26.9815C19.4618 26.0898 19.6495 25.2215 20.025 24.3767C20.5413 23.1565 20.7525 22.1005 20.6586 21.2088C20.6117 20.2701 20.4474 19.4722 20.1658 18.8152C19.8373 18.1112 19.3679 17.501 18.7578 16.9848C19.8373 16.9379 20.9637 17.0082 22.137 17.196C23.1226 17.3837 24.2255 17.7122 25.4458 18.1816C26.6661 18.604 27.8863 19.2845 29.1066 20.2232C32.5796 22.9922 33.6122 26.0663 32.2042 29.4455Z" fill="#D2B690"/>
<path d="M0.912028 4.5535C1.24056 3.7087 1.73336 2.98124 2.39043 2.37111C3.00056 1.76098 3.70455 1.29165 4.50242 0.963119C5.25335 0.681518 6.07469 0.517251 6.96642 0.470319C7.81121 0.470319 8.65601 0.634586 9.50081 0.963119C10.3456 1.29165 11.0731 1.76098 11.6832 2.37111C12.2933 3.02817 12.7627 3.75564 13.0912 4.5535C13.4197 5.35136 13.6075 6.17269 13.6544 7.01749C13.6544 7.90922 13.4667 8.77748 13.0912 9.62228C12.5749 10.8425 12.3637 11.8985 12.4576 12.7903C12.5045 13.7289 12.6688 14.5268 12.9504 15.1839C13.2789 15.8878 13.7483 16.498 14.3584 17.0142C13.2789 17.0612 12.1525 16.9908 10.9792 16.803C9.99361 16.6153 8.89068 16.2868 7.67041 15.8174C6.45015 15.395 5.22988 14.7145 4.00962 13.7759C0.536563 11.0068 -0.495967 7.93268 0.912028 4.5535Z" fill="#D2B690"/>
<path d="M29.0325 1.08003C29.8773 1.40856 30.6047 1.90136 31.2149 2.55842C31.825 3.16855 32.2943 3.87255 32.6229 4.67041C32.9045 5.42134 33.0687 6.24267 33.1157 7.1344C33.1157 7.9792 32.9514 8.82399 32.6229 9.66879C32.2943 10.5136 31.825 11.241 31.2149 11.8512C30.5578 12.4613 29.8303 12.9306 29.0325 13.2592C28.2346 13.5877 27.4133 13.7754 26.5685 13.8224C25.6767 13.8224 24.8085 13.6346 23.9637 13.2592C22.7434 12.7429 21.6874 12.5317 20.7957 12.6256C19.857 12.6725 19.0592 12.8368 18.4021 13.1184C17.6981 13.4469 17.088 13.9162 16.5717 14.5264C16.5248 13.4469 16.5952 12.3205 16.7829 11.1472C16.9706 10.1616 17.2992 9.05866 17.7685 7.8384C18.1909 6.61814 18.8714 5.39788 19.8101 4.17762C22.5791 0.704567 25.6533 -0.327963 29.0325 1.08003Z" fill="#D2B690"/>
<path d="M4.08277 32.6172C3.23797 32.2887 2.5105 31.7959 1.90037 31.1388C1.29024 30.5287 0.820907 29.8247 0.492377 29.0269C0.210776 28.2759 0.0465072 27.4546 -0.000425016 26.5629C-0.000425053 25.7181 0.163841 24.8733 0.492377 24.0285C0.820907 23.1837 1.29024 22.4562 1.90037 21.8461C2.55744 21.236 3.2849 20.7666 4.08277 20.4381C4.88063 20.1096 5.70196 19.9218 6.54676 19.8749C7.43849 19.8749 8.30676 20.0626 9.15155 20.4381C10.3718 20.9544 11.4278 21.1656 12.3195 21.0717C13.2582 21.0248 14.0561 20.8605 14.7131 20.5789C15.4171 20.2504 16.0273 19.781 16.5435 19.1709C16.5905 20.2504 16.5201 21.3768 16.3323 22.5501C16.1446 23.5357 15.8161 24.6386 15.3467 25.8589C14.9243 27.0791 14.2438 28.2994 13.3051 29.5196C10.5361 32.9927 7.46196 34.0252 4.08277 32.6172Z" fill="#D2B690"/>
</svg>
