<svg width="42" height="34" viewBox="0 0 42 34" fill="none" xmlns="http://www.w3.org/2000/svg">
<path d="M34.2048 5.74534C35.3848 6.24095 36.4468 6.87815 37.3908 7.65696C38.3348 8.41216 39.1136 9.28537 39.7272 10.2766C40.3644 11.2442 40.8364 12.2944 41.1432 13.4272C41.45 14.56 41.5562 15.7282 41.4618 16.9318L29.7443 12.1882V12.1528C28.5643 11.6808 27.4315 11.0318 26.3459 10.2058C25.2603 9.37977 24.3163 8.44756 23.5139 7.40915C22.7115 6.37075 22.0861 5.26154 21.6377 4.08153C21.1893 2.87792 21.0123 1.67431 21.1067 0.470703L34.2048 5.74534Z" fill="#006462"/>
<path d="M7.90657 5.74534C6.72657 6.24095 5.66456 6.87815 4.72055 7.65696C3.77654 8.41216 2.99774 9.28537 2.38413 10.2766C1.74693 11.2442 1.27492 12.2944 0.968122 13.4272C0.66132 14.56 0.555119 15.7282 0.649519 16.9318L12.367 12.1882V12.1528C13.547 11.6808 14.6798 11.0318 15.7654 10.2058C16.851 9.37977 17.795 8.44756 18.5975 7.40915C19.3999 6.37075 20.0253 5.26154 20.4737 4.08153C20.9221 2.87792 21.0991 1.67431 21.0047 0.470703L7.90657 5.74534Z" fill="#006462"/>
<path d="M7.90657 28.2508C6.72657 27.7551 5.66456 27.1179 4.72055 26.3391C3.77654 25.5839 2.99774 24.7107 2.38413 23.7195C1.74693 22.7519 1.27492 21.7017 0.968122 20.5689C0.66132 19.4361 0.555119 18.2679 0.649519 17.0643L12.367 21.8079V21.8433C13.547 22.3153 14.6798 22.9643 15.7654 23.7903C16.851 24.6163 17.795 25.5485 18.5975 26.5869C19.3999 27.6253 20.0253 28.7346 20.4737 29.9146C20.9221 31.1182 21.0991 32.3218 21.0047 33.5254L7.90657 28.2508Z" fill="#006462"/>
<path d="M34.2048 28.2508C35.3848 27.7551 36.4468 27.1179 37.3908 26.3391C38.3348 25.5839 39.1136 24.7107 39.7272 23.7195C40.3644 22.7519 40.8364 21.7017 41.1432 20.5689C41.45 19.4361 41.5562 18.2679 41.4618 17.0643L29.7443 21.8079V21.8433C28.5643 22.3153 27.4315 22.9643 26.3459 23.7903C25.2603 24.6163 24.3163 25.5485 23.5139 26.5869C22.7115 27.6253 22.0861 28.7346 21.6377 29.9146C21.1893 31.1182 21.0123 32.3218 21.1067 33.5254L34.2048 28.2508Z" fill="#006462"/>
</svg>
