<svg width="31" height="31" viewBox="0 0 31 31" fill="none" xmlns="http://www.w3.org/2000/svg">
<path d="M9.80816 8.12539C10.2943 8.32959 10.7319 8.59213 11.1209 8.91301C11.5098 9.22417 11.8307 9.58394 12.0835 9.99234C12.346 10.391 12.5405 10.8237 12.6669 11.2905C12.7933 11.7572 12.8371 12.2385 12.7982 12.7344L7.97038 10.78V10.7654C7.4842 10.5709 7.01746 10.3035 6.57017 9.96317C6.12288 9.62284 5.73393 9.23875 5.40333 8.81091C5.07272 8.38307 4.81505 7.92606 4.6303 7.43987C4.44555 6.94396 4.37262 6.44806 4.41151 5.95215L9.80816 8.12539Z" fill="#D2B690"/>
<path d="M20.2465 21.9293C19.7603 21.7251 19.3228 21.4626 18.9338 21.1417C18.5449 20.8305 18.224 20.4707 17.9712 20.0623C17.7086 19.6637 17.5142 19.231 17.3878 18.7642C17.2614 18.2975 17.2176 17.8162 17.2565 17.3203L22.0843 19.2747V19.2893C22.5705 19.4838 23.0372 19.7512 23.4845 20.0915C23.9318 20.4318 24.3208 20.8159 24.6514 21.2438C24.982 21.6716 25.2396 22.1286 25.4244 22.6148C25.6091 23.1107 25.6821 23.6066 25.6432 24.1025L20.2465 21.9293Z" fill="#D2B690"/>
<path d="M21.9293 9.80816C21.7251 10.2943 21.4626 10.7319 21.1417 11.1209C20.8305 11.5098 20.4707 11.8307 20.0623 12.0835C19.6637 12.346 19.231 12.5405 18.7642 12.6669C18.2975 12.7933 17.8162 12.8371 17.3203 12.7982L19.2747 7.97038L19.2893 7.97038C19.4838 7.4842 19.7512 7.01746 20.0915 6.57017C20.4318 6.12288 20.8159 5.73393 21.2438 5.40333C21.6716 5.07272 22.1286 4.81505 22.6148 4.6303C23.1107 4.44555 23.6066 4.37262 24.1025 4.41151L21.9293 9.80816Z" fill="#D2B690"/>
<path d="M8.12539 20.2465C8.32959 19.7603 8.59213 19.3228 8.91301 18.9338C9.22417 18.5449 9.58394 18.224 9.99234 17.9712C10.391 17.7086 10.8237 17.5142 11.2905 17.3878C11.7572 17.2614 12.2385 17.2176 12.7344 17.2565L10.78 22.0843L10.7654 22.0843C10.5709 22.5705 10.3035 23.0372 9.96317 23.4845C9.62284 23.9318 9.23875 24.3208 8.81091 24.6514C8.38307 24.982 7.92606 25.2396 7.43987 25.4244C6.94396 25.6091 6.44806 25.6821 5.95215 25.6432L8.12539 20.2465Z" fill="#D2B690"/>
<path d="M16.2171 6.45657C16.4165 6.94475 16.5403 7.4398 16.5884 7.94172C16.6434 8.43677 16.6159 8.91807 16.5059 9.38561C16.4096 9.85316 16.2412 10.2966 16.0005 10.7161C15.7599 11.1355 15.4505 11.5068 15.0723 11.8299L13.0406 7.03413L13.0509 7.02382C12.8446 6.54252 12.7037 6.02341 12.628 5.46647C12.5524 4.90954 12.549 4.36293 12.6177 3.82662C12.6865 3.29032 12.8274 2.78496 13.0406 2.31054C13.2606 1.82924 13.5597 1.42701 13.9378 1.10385L16.2171 6.45657Z" fill="#D2B690"/>
<path d="M13.8376 23.5991C13.6382 23.1109 13.5144 22.6159 13.4663 22.1139C13.4113 21.6189 13.4388 21.1376 13.5488 20.6701C13.645 20.2025 13.8135 19.759 14.0541 19.3396C14.2948 18.9202 14.6042 18.5489 14.9824 18.2257L17.0141 23.0215L17.0038 23.0318C17.2101 23.5131 17.351 24.0323 17.4267 24.5892C17.5023 25.1461 17.5057 25.6927 17.437 26.229C17.3682 26.7653 17.2273 27.2707 17.0141 27.7451C16.7941 28.2264 16.495 28.6287 16.1168 28.9518L13.8376 23.5991Z" fill="#D2B690"/>
<path d="M23.5981 16.2171C23.1099 16.4165 22.6149 16.5403 22.113 16.5884C21.6179 16.6434 21.1366 16.6159 20.6691 16.5059C20.2015 16.4096 19.758 16.2412 19.3386 16.0005C18.9192 15.7599 18.5479 15.4505 18.2248 15.0723L23.0206 13.0406L23.0309 13.0509C23.5122 12.8446 24.0313 12.7037 24.5882 12.628C25.1451 12.5524 25.6918 12.549 26.2281 12.6177C26.7644 12.6865 27.2697 12.8274 27.7442 13.0406C28.2254 13.2606 28.6277 13.5597 28.9508 13.9378L23.5981 16.2171Z" fill="#D2B690"/>
<path d="M6.45657 13.8376C6.94475 13.6382 7.4398 13.5144 7.94172 13.4663C8.43677 13.4113 8.91807 13.4388 9.38561 13.5488C9.85316 13.645 10.2966 13.8135 10.7161 14.0541C11.1355 14.2948 11.5068 14.6042 11.8299 14.9824L7.03413 17.0141L7.02382 17.0038C6.54252 17.2101 6.02341 17.351 5.46647 17.4267C4.90954 17.5023 4.36293 17.5057 3.82662 17.437C3.29032 17.3682 2.78496 17.2273 2.31054 17.0141C1.82924 16.7941 1.42701 16.495 1.10385 16.1168L6.45657 13.8376Z" fill="#D2B690"/>
<circle cx="15.0499" cy="15.0499" r="1.81257" fill="#D2B690"/>
</svg>
